<?xml version="1.0" encoding="UTF-8" standalone="no"?>
<svg width="90px" height="94px" viewBox="0 0 90 94" version="1.1" xmlns="http://www.w3.org/2000/svg" xmlns:xlink="http://www.w3.org/1999/xlink" xmlns:sketch="http://www.bohemiancoding.com/sketch/ns">
    <!-- Generator: Sketch 3.4.3 (16618) - http://www.bohemiancoding.com/sketch -->
    <title>noun_49675_cc</title>
    <desc>Created with Sketch.</desc>
    <defs></defs>
    <g id="Page-1" stroke="none" stroke-width="1" fill="none" fill-rule="evenodd" sketch:type="MSPage">
        <g id="noun_49675_cc" sketch:type="MSLayerGroup">
            <g id="Group" sketch:type="MSShapeGroup">
                <g id="Shape">
                    <path d="M25.315,65.8876293 C20.904,60.9068103 18.202,54.2549397 18.202,46.9396552 C18.202,31.5017241 30.2,18.986569 45,18.986569 C50.927,18.986569 56.398,21.0018448 60.835,24.4002759 C61.245,24.71425 61.646,25.0376121 62.038,25.3745345 L74.398,11.4219828 C74.015,11.0767155 73.624,10.7397931 73.23,10.4080862 C65.509,3.90642241 55.696,0 45,0 C20.147,0 0,21.0154052 0,46.9396552 C0,60.0003534 5.13,71.7978534 13.384,80.3054052 L25.198,66.0274052 L25.315,65.8876293 L25.315,65.8876293 Z" fill="#FFFFFF"></path>
                    <path d="M62.77,67.85075 C58.04,72.2286552 51.82,74.8927414 45,74.8927414 C41.572,74.8927414 38.297,74.2147241 35.285,72.9890776 L35.204,73.1486724 L26.777,89.8498017 C32.349,92.4304397 38.51,93.8793103 45,93.8793103 C57.198,93.8793103 68.25,88.8046121 76.354,80.5839138 L62.902,67.9748793 L62.77,67.85075 L62.77,67.85075 Z" fill="#FFFFFF"></path>
                    <path d="M77.684,14.7056724 C77.336,14.3218103 76.982,13.9442069 76.622,13.5728621 L64.266,27.5222845 C64.619,27.9030172 64.959,28.2952241 65.291,28.696819 C69.342,33.5931466 71.798,39.9644224 71.798,46.9396552 C71.798,52.9833966 69.953,58.5723448 66.827,63.1442672 C66.532,63.575069 66.227,63.998569 65.91,64.4116379 C65.593,64.8236638 65.269,65.229431 64.931,65.6216379 L78.469,78.3109914 C78.807,77.9187845 79.133,77.5151034 79.458,77.1103793 C79.784,76.7056552 80.1,76.2946724 80.413,75.8784741 C86.411,67.9039483 90,57.8630345 90,46.9396552 C90,34.4505776 85.31,23.1141293 77.684,14.7056724 L77.684,14.7056724 Z" fill="#FFFFFF"></path>
                    <path d="M31.198,70.8966121 C30.763,70.623319 30.335,70.3364655 29.917,70.0381379 L29.952,69.9692931 L29.903,70.0277069 C29.484,69.7283362 29.073,69.4174914 28.671,69.0941293 C28.27,68.7718103 27.878,68.4380172 27.496,68.0937931 L15.606,82.4635862 C15.989,82.8088534 16.388,83.1332586 16.782,83.4639224 L17.903,84.5310172 L17.976,84.4433966 C19.083,85.3133448 20.229,86.1311379 21.413,86.8936466 C21.843,87.1711121 22.282,87.4350172 22.722,87.6968362 C23.161,87.9586552 23.595,88.228819 24.043,88.4749914 L32.52,71.6737241 C32.071,71.4285948 31.631,71.1688621 31.198,70.8966121 L31.198,70.8966121 Z" fill="#EE9B06"></path>
                </g>
            </g>
        </g>
    </g>
</svg>