<?xml version="1.0" encoding="UTF-8" standalone="no"?>
<svg width="80px" height="100px" viewBox="0 0 80 100" version="1.1" xmlns="http://www.w3.org/2000/svg" xmlns:xlink="http://www.w3.org/1999/xlink" xmlns:sketch="http://www.bohemiancoding.com/sketch/ns">
    <!-- Generator: Sketch 3.4.3 (16618) - http://www.bohemiancoding.com/sketch -->
    <title>noun_65937_cc</title>
    <desc>Created with Sketch.</desc>
    <defs></defs>
    <g id="Page-1" stroke="none" stroke-width="1" fill="none" fill-rule="evenodd" sketch:type="MSPage">
        <g id="noun_65937_cc" sketch:type="MSLayerGroup">
            <g id="Group" sketch:type="MSShapeGroup">
                <g id="Shape">
                    <path d="M40,0 C25.5,0 11.9,3.6 0,10 L0,10 L0,30 C11.9,36.4 25.5,40 40,40 C54.5,40 68.1,36.4 80,30 L80,10 L80,10 C68.1,3.6 54.5,0 40,0 L40,0 Z" fill="#FFFFFF"></path>
                    <path d="M0,40 L0,60 C11.9,66.4 25.5,70 40,70 C54.5,70 68.1,66.4 80,60 L80,40 C68.1,46.4 54.5,50 40,50 C25.5,50 11.9,46.4 0,40 L0,40 Z" fill="#EE9C06"></path>
                    <path d="M0,70 L0,90 C11.9,96.4 25.5,100 40,100 C54.5,100 68.1,96.4 80,90 L80,70 C68.1,76.4 54.5,80 40,80 C25.5,80 11.9,76.4 0,70 L0,70 Z" fill="#FFFFFF"></path>
                </g>
            </g>
        </g>
    </g>
</svg>